<?xml version="1.0" standalone="no"?>
<!DOCTYPE svg PUBLIC "-//W3C//DTD SVG 20010904//EN"
 "http://www.w3.org/TR/2001/REC-SVG-20010904/DTD/svg10.dtd">
<svg version="1.0" xmlns="http://www.w3.org/2000/svg"
 width="1024.000000pt" height="1024.000000pt" viewBox="0 0 1024.000000 1024.000000"
 preserveAspectRatio="xMidYMid meet">

<g transform="translate(0.000000,1024.000000) scale(0.100000,-0.100000)"
fill="#000000" stroke="none">
<path d="M3044 8189 c-49 -100 -88 -184 -87 -187 3 -6 355 -12 365 -6 8 5
-168 368 -180 372 -5 1 -49 -79 -98 -179z"/>
<path d="M3102 7520 c-13 -6 -47 -30 -75 -54 -109 -92 -144 -91 -244 7 -29 28
-54 49 -56 46 -2 -2 -1 -306 1 -675 l4 -672 45 -53 c116 -140 228 -332 308
-529 26 -63 48 -116 49 -117 1 -2 17 34 36 80 78 193 181 373 305 531 l75 96
0 672 0 672 -37 -36 c-112 -107 -152 -112 -256 -28 -78 62 -115 77 -155 60z
m-22 -34 c0 -2 -8 -10 -17 -17 -16 -13 -17 -12 -4 4 13 16 21 21 21 13z m-103
-138 c-2 -13 -4 -3 -4 22 0 25 2 35 4 23 2 -13 2 -33 0 -45z m323 -295 c0
-196 -2 -354 -5 -351 -9 9 -9 708 0 708 3 0 5 -160 5 -357z m-320 66 c0 -100
-2 -185 -5 -187 -3 -3 -5 82 -5 188 0 106 2 191 6 188 3 -3 5 -88 4 -189z m-3
-381 c-2 -29 -3 -6 -3 52 0 58 1 81 3 53 2 -29 2 -77 0 -105z m0 -180 c-2 -24
-4 -5 -4 42 0 47 2 66 4 43 2 -24 2 -62 0 -85z m322 -50 c-2 -188 -7 -176 -11
25 -2 75 0 137 5 137 4 0 6 -73 6 -162z m-322 -165 c-2 -32 -3 -6 -3 57 0 63
1 89 3 58 2 -32 2 -84 0 -115z m321 -130 c-1 -111 -2 -118 -7 -53 -3 41 -4 99
-3 128 7 95 12 54 10 -75z m-321 0 c-2 -16 -4 -5 -4 22 0 28 2 40 4 28 2 -13
2 -35 0 -50z m0 -110 c-2 -16 -4 -3 -4 27 0 30 2 43 4 28 2 -16 2 -40 0 -55z
m0 -130 c-2 -21 -4 -6 -4 32 0 39 2 55 4 38 2 -18 2 -50 0 -70z m320 30 c-3
-10 -5 -4 -5 12 0 17 2 24 5 18 2 -7 2 -21 0 -30z m-7 -167 c-8 -8 -10 -3 -6
19 2 17 6 53 7 80 3 44 3 41 6 -19 3 -42 0 -73 -7 -80z m-307 74 c-3 -11 -7
-20 -9 -20 -2 0 -4 9 -4 20 0 11 4 20 9 20 5 0 7 -9 4 -20z m58 -157 c13 -16
12 -17 -3 -4 -10 7 -18 15 -18 17 0 8 8 3 21 -13z m17 -48 c-3 -3 -9 2 -12 12
-6 14 -5 15 5 6 7 -7 10 -15 7 -18z m133 -62 c-12 -20 -14 -14 -5 12 4 9 9 14
11 11 3 -2 0 -13 -6 -23z m-88 -18 c-3 -9 -8 -14 -10 -11 -3 3 -2 9 2 15 9 16
15 13 8 -4z m70 -25 c-3 -12 -8 -19 -11 -16 -5 6 5 36 12 36 2 0 2 -9 -1 -20z
m-35 -85 c-3 -3 -9 2 -12 12 -6 14 -5 15 5 6 7 -7 10 -15 7 -18z"/>
<path d="M1147 6713 c-4 -3 -7 -646 -7 -1428 0 -1162 2 -1425 13 -1433 7 -6
29 -9 48 -6 47 8 365 -12 491 -31 391 -58 746 -213 1046 -457 42 -34 149 -133
238 -220 88 -87 165 -158 169 -158 5 0 79 71 164 159 269 274 488 426 786 544
250 99 491 145 825 156 l195 6 3 1439 2 1439 -110 -7 c-194 -11 -509 -82 -710
-158 -351 -134 -659 -403 -868 -758 -110 -186 -222 -469 -268 -677 -11 -46
-24 -83 -30 -83 -7 0 -15 21 -19 46 -3 26 -24 105 -45 178 -147 500 -403 877
-755 1112 -189 125 -359 197 -638 269 -207 53 -507 92 -530 68z m678 -1107
c458 -83 803 -313 1064 -710 60 -93 184 -331 227 -438 10 -27 21 -48 24 -48 3
0 39 71 80 158 135 284 255 460 430 632 186 183 399 306 651 374 87 24 289 59
296 52 2 -2 -28 -24 -66 -49 -166 -110 -471 -406 -609 -589 -251 -336 -542
-848 -713 -1255 -35 -84 -67 -153 -72 -153 -4 0 -15 17 -23 38 -207 518 -492
1030 -761 1367 -111 139 -373 408 -478 490 -44 34 -116 86 -160 115 -44 28
-69 49 -55 46 14 -3 88 -17 165 -30z"/>
<path d="M758 6354 c-5 -4 -8 -677 -8 -1495 0 -1292 2 -1488 15 -1492 8 -4 42
-1 77 6 39 7 179 11 373 11 345 0 447 -11 751 -79 396 -88 817 -276 1089 -484
43 -34 82 -61 86 -61 4 0 44 28 90 62 407 302 963 504 1534 558 154 14 478 12
615 -4 63 -8 118 -11 123 -7 4 4 6 677 5 1497 l-3 1489 -115 -2 c-63 -2 -121
-5 -127 -8 -10 -3 -13 -272 -13 -1309 0 -1173 -2 -1306 -16 -1320 -13 -14 -47
-16 -217 -16 -293 0 -494 -32 -754 -119 -381 -127 -678 -313 -1003 -627 -59
-57 -113 -104 -120 -104 -8 0 -68 53 -134 118 -378 369 -771 581 -1273 686
-176 37 -288 48 -500 51 -105 2 -196 6 -202 10 -8 4 -11 395 -11 1310 0 1232
-1 1305 -17 1314 -23 12 -236 25 -245 15z"/>
<path d="M6000 5888 c0 -12 172 -511 319 -928 l66 -185 120 0 120 0 188 534
c104 294 191 547 194 563 l6 29 -119 -3 -119 -3 -45 -135 c-25 -74 -83 -253
-130 -397 -79 -243 -99 -291 -101 -245 0 9 -58 188 -127 397 l-127 380 -122 3
c-95 2 -123 0 -123 -10z"/>
<path d="M7150 5335 l0 -566 113 3 112 3 0 560 0 560 -112 3 -113 3 0 -566z"/>
<path d="M7517 5894 c-3 -3 48 -164 115 -357 66 -194 149 -440 185 -547 36
-107 70 -201 76 -207 6 -9 45 -13 127 -13 l118 0 16 43 c27 74 367 1062 369
1072 1 6 -43 10 -117 10 l-119 0 -129 -385 c-142 -426 -139 -419 -143 -405 -2
6 -56 172 -120 370 -64 198 -121 375 -126 393 l-11 32 -117 0 c-65 0 -120 -3
-124 -6z"/>
<path d="M8665 5533 c-71 -203 -159 -453 -196 -557 -37 -105 -66 -194 -63
-198 3 -4 56 -8 119 -8 l113 0 38 113 39 112 206 3 207 2 40 -112 40 -113 107
-3 c60 -1 112 1 117 6 5 5 -76 248 -189 565 l-198 557 -125 0 -126 0 -129
-367z m330 -113 c36 -107 65 -196 65 -199 0 -3 -61 -6 -135 -6 -86 0 -134 4
-132 10 2 6 33 96 68 202 35 106 64 191 66 189 1 -1 32 -89 68 -196z"/>
<path d="M6141 4465 c-87 -28 -133 -104 -111 -184 14 -53 66 -97 138 -116 108
-30 126 -39 137 -69 8 -24 6 -31 -14 -47 -43 -35 -152 -21 -190 25 -19 23 -32
19 -65 -20 -28 -33 -28 -35 -11 -54 37 -41 119 -72 192 -72 78 0 106 9 151 47
59 50 67 144 16 204 -25 30 -63 48 -167 76 -67 19 -93 48 -78 87 18 47 96 53
156 12 l38 -25 33 32 c32 31 33 33 16 52 -47 52 -163 78 -241 52z"/>
<path d="M6663 4462 c-69 -25 -117 -63 -150 -120 -25 -42 -28 -57 -28 -137 0
-98 10 -125 68 -191 94 -108 281 -112 377 -9 l25 27 -40 33 -40 34 -25 -23
c-57 -53 -125 -63 -185 -26 -80 49 -100 190 -38 267 57 71 141 80 208 22 32
-29 35 -29 63 -15 54 28 59 43 26 78 -62 65 -173 91 -261 60z"/>
<path d="M7767 4469 c-58 -14 -91 -34 -136 -85 -152 -173 -34 -455 192 -456
74 0 121 17 175 66 60 55 86 115 86 206 0 58 -6 86 -23 122 -32 65 -97 123
-162 142 -58 18 -76 18 -132 5z m142 -116 c38 -28 71 -99 71 -153 0 -59 -35
-129 -77 -153 -44 -25 -112 -25 -154 -1 -18 11 -43 39 -56 63 -52 99 -11 224
87 264 27 11 102 0 129 -20z"/>
<path d="M8363 4471 c-88 -23 -168 -101 -193 -191 -35 -127 31 -275 146 -330
57 -26 152 -29 206 -7 139 58 206 248 136 383 -29 56 -84 109 -133 130 -42 17
-122 25 -162 15z m147 -121 c68 -48 90 -160 47 -241 -59 -111 -208 -111 -264
1 -25 48 -30 120 -12 167 35 93 149 130 229 73z"/>
<path d="M9285 4471 c-95 -24 -144 -100 -124 -188 12 -57 60 -94 161 -126 92
-30 118 -46 118 -77 0 -30 -39 -50 -95 -50 -40 0 -62 7 -98 30 -26 17 -49 30
-51 30 -2 0 -16 -16 -31 -36 -26 -34 -27 -36 -8 -56 59 -67 227 -91 307 -45
59 33 80 68 80 131 0 91 -34 124 -167 162 -109 32 -142 69 -97 114 28 28 92
26 145 -5 l42 -24 32 33 31 32 -22 22 c-47 44 -157 70 -223 53z"/>
<path d="M8780 4203 l0 -263 150 0 150 0 0 50 0 50 -100 0 -100 0 0 209 0 209
-50 4 -50 3 0 -262z"/>
<path d="M7040 4200 l0 -260 50 0 50 0 0 105 0 105 115 0 115 0 0 -105 0 -105
50 0 50 0 0 260 0 260 -50 0 -50 0 0 -105 0 -105 -115 0 -115 0 0 105 0 105
-50 0 -50 0 0 -260z"/>
</g>
</svg>
